<?xml version='1.0' encoding='UTF-8'?>
<svg width="19.8mm" height="19.8mm" version="1.1" viewBox="0 0 19.8 19.8" xmlns="http://www.w3.org/2000/svg"><path d="M2.4,2.4H3V3H2.4zM3,2.4H3.6V3H3zM3.6,2.4H4.2V3H3.6zM4.2,2.4H4.8V3H4.2zM4.8,2.4H5.4V3H4.8zM5.4,2.4H6V3H5.4zM6,2.4H6.6V3H6zM7.8,2.4H8.4V3H7.8zM9,2.4H9.6V3H9zM9.6,2.4H10.2V3H9.6zM10.8,2.4H11.4V3H10.8zM11.4,2.4H12V3H11.4zM13.2,2.4H13.8V3H13.2zM13.8,2.4H14.4V3H13.8zM14.4,2.4H15V3H14.4zM15,2.4H15.6V3H15zM15.6,2.4H16.2V3H15.6zM16.2,2.4H16.8V3H16.2zM16.8,2.4H17.4V3H16.8zM2.4,3H3V3.6H2.4zM6,3H6.6V3.6H6zM7.2,3H7.8V3.6H7.2zM8.4,3H9V3.6H8.4zM10.2,3H10.8V3.6H10.2zM11.4,3H12V3.6H11.4zM13.2,3H13.8V3.6H13.2zM16.8,3H17.4V3.6H16.8zM2.4,3.6H3V4.2H2.4zM3.6,3.6H4.2V4.2H3.6zM4.2,3.6H4.8V4.2H4.2zM4.8,3.6H5.4V4.2H4.8zM6,3.6H6.6V4.2H6zM9.6,3.6H10.2V4.2H9.6zM11.4,3.6H12V4.2H11.4zM13.2,3.6H13.8V4.2H13.2zM14.4,3.6H15V4.2H14.4zM15,3.6H15.6V4.2H15zM15.6,3.6H16.2V4.2H15.6zM16.8,3.6H17.4V4.2H16.8zM2.4,4.2H3V4.8H2.4zM3.6,4.2H4.2V4.8H3.6zM4.2,4.2H4.8V4.8H4.2zM4.8,4.2H5.4V4.8H4.8zM6,4.2H6.6V4.8H6zM7.8,4.2H8.4V4.8H7.8zM8.4,4.2H9V4.8H8.4zM10.8,4.2H11.4V4.8H10.8zM13.2,4.2H13.8V4.8H13.2zM14.4,4.2H15V4.8H14.4zM15,4.2H15.6V4.8H15zM15.6,4.2H16.2V4.8H15.6zM16.8,4.2H17.4V4.8H16.8zM2.4,4.8H3V5.4H2.4zM3.6,4.8H4.2V5.4H3.6zM4.2,4.8H4.8V5.4H4.2zM4.8,4.8H5.4V5.4H4.8zM6,4.8H6.6V5.4H6zM7.2,4.8H7.8V5.4H7.2zM8.4,4.8H9V5.4H8.4zM10.2,4.8H10.8V5.4H10.2zM10.8,4.8H11.4V5.4H10.8zM11.4,4.8H12V5.4H11.4zM12,4.8H12.6V5.4H12zM13.2,4.8H13.8V5.4H13.2zM14.4,4.8H15V5.4H14.4zM15,4.8H15.6V5.4H15zM15.6,4.8H16.2V5.4H15.6zM16.8,4.8H17.4V5.4H16.8zM2.4,5.4H3V6H2.4zM6,5.4H6.6V6H6zM9.6,5.4H10.2V6H9.6zM10.2,5.4H10.8V6H10.2zM11.4,5.4H12V6H11.4zM12,5.4H12.6V6H12zM13.2,5.4H13.8V6H13.2zM16.8,5.4H17.4V6H16.8zM2.4,6H3V6.6H2.4zM3,6H3.6V6.6H3zM3.6,6H4.2V6.6H3.6zM4.2,6H4.8V6.6H4.2zM4.8,6H5.4V6.6H4.8zM5.4,6H6V6.6H5.4zM6,6H6.6V6.6H6zM7.2,6H7.8V6.6H7.2zM8.4,6H9V6.6H8.4zM9.6,6H10.2V6.6H9.6zM10.8,6H11.4V6.6H10.8zM12,6H12.6V6.6H12zM13.2,6H13.8V6.6H13.2zM13.8,6H14.4V6.6H13.8zM14.4,6H15V6.6H14.4zM15,6H15.6V6.6H15zM15.6,6H16.2V6.6H15.6zM16.2,6H16.8V6.6H16.2zM16.8,6H17.4V6.6H16.8zM7.8,6.6H8.4V7.2H7.8zM8.4,6.6H9V7.2H8.4zM9,6.6H9.6V7.2H9zM10.2,6.6H10.8V7.2H10.2zM10.8,6.6H11.4V7.2H10.8zM11.4,6.6H12V7.2H11.4zM12,6.6H12.6V7.2H12zM2.4,7.2H3V7.8H2.4zM3.6,7.2H4.2V7.8H3.6zM4.8,7.2H5.4V7.8H4.8zM6,7.2H6.6V7.8H6zM7.8,7.2H8.4V7.8H7.8zM9.6,7.2H10.2V7.8H9.6zM10.2,7.2H10.8V7.8H10.2zM10.8,7.2H11.4V7.8H10.8zM12,7.2H12.6V7.8H12zM14.4,7.2H15V7.8H14.4zM16.2,7.2H16.8V7.8H16.2zM3,7.8H3.6V8.4H3zM3.6,7.8H4.2V8.4H3.6zM4.8,7.8H5.4V8.4H4.8zM6.6,7.8H7.2V8.4H6.6zM8.4,7.8H9V8.4H8.4zM9.6,7.8H10.2V8.4H9.6zM12,7.8H12.6V8.4H12zM12.6,7.8H13.2V8.4H12.6zM13.2,7.8H13.8V8.4H13.2zM16.8,7.8H17.4V8.4H16.8zM2.4,8.4H3V9H2.4zM3.6,8.4H4.2V9H3.6zM4.2,8.4H4.8V9H4.2zM4.8,8.4H5.4V9H4.8zM6,8.4H6.6V9H6zM8.4,8.4H9V9H8.4zM9,8.4H9.6V9H9zM10.2,8.4H10.8V9H10.2zM13.2,8.4H13.8V9H13.2zM13.8,8.4H14.4V9H13.8zM14.4,8.4H15V9H14.4zM15.6,8.4H16.2V9H15.6zM16.2,8.4H16.8V9H16.2zM16.8,8.4H17.4V9H16.8zM2.4,9H3V9.6H2.4zM3,9H3.6V9.6H3zM3.6,9H4.2V9.6H3.6zM4.2,9H4.8V9.6H4.2zM5.4,9H6V9.6H5.4zM6.6,9H7.2V9.6H6.6zM7.2,9H7.8V9.6H7.2zM7.8,9H8.4V9.6H7.8zM8.4,9H9V9.6H8.4zM9,9H9.6V9.6H9zM9.6,9H10.2V9.6H9.6zM10.2,9H10.8V9.6H10.2zM10.8,9H11.4V9.6H10.8zM14.4,9H15V9.6H14.4zM16.2,9H16.8V9.6H16.2zM4.2,9.6H4.8V10.2H4.2zM5.4,9.6H6V10.2H5.4zM6,9.6H6.6V10.2H6zM10.8,9.6H11.4V10.2H10.8zM12,9.6H12.6V10.2H12zM12.6,9.6H13.2V10.2H12.6zM13.2,9.6H13.8V10.2H13.2zM15,9.6H15.6V10.2H15zM16.2,9.6H16.8V10.2H16.2zM16.8,9.6H17.4V10.2H16.8zM3,10.2H3.6V10.8H3zM4.2,10.2H4.8V10.8H4.2zM4.8,10.2H5.4V10.8H4.8zM5.4,10.2H6V10.8H5.4zM7.8,10.2H8.4V10.8H7.8zM9,10.2H9.6V10.8H9zM12,10.2H12.6V10.8H12zM13.2,10.2H13.8V10.8H13.2zM15,10.2H15.6V10.8H15zM16.8,10.2H17.4V10.8H16.8zM2.4,10.8H3V11.4H2.4zM3.6,10.8H4.2V11.4H3.6zM6,10.8H6.6V11.4H6zM6.6,10.8H7.2V11.4H6.6zM8.4,10.8H9V11.4H8.4zM10.2,10.8H10.8V11.4H10.2zM13.2,10.8H13.8V11.4H13.2zM13.8,10.8H14.4V11.4H13.8zM15.6,10.8H16.2V11.4H15.6zM16.2,10.8H16.8V11.4H16.2zM16.8,10.8H17.4V11.4H16.8zM3,11.4H3.6V12H3zM3.6,11.4H4.2V12H3.6zM4.2,11.4H4.8V12H4.2zM6.6,11.4H7.2V12H6.6zM8.4,11.4H9V12H8.4zM9,11.4H9.6V12H9zM11.4,11.4H12V12H11.4zM12,11.4H12.6V12H12zM12.6,11.4H13.2V12H12.6zM13.2,11.4H13.8V12H13.2zM14.4,11.4H15V12H14.4zM16.2,11.4H16.8V12H16.2zM2.4,12H3V12.6H2.4zM3.6,12H4.2V12.6H3.6zM4.2,12H4.8V12.6H4.2zM4.8,12H5.4V12.6H4.8zM6,12H6.6V12.6H6zM7.2,12H7.8V12.6H7.2zM7.8,12H8.4V12.6H7.8zM9.6,12H10.2V12.6H9.6zM12,12H12.6V12.6H12zM12.6,12H13.2V12.6H12.6zM13.2,12H13.8V12.6H13.2zM13.8,12H14.4V12.6H13.8zM14.4,12H15V12.6H14.4zM15,12H15.6V12.6H15zM7.2,12.6H7.8V13.2H7.2zM8.4,12.6H9V13.2H8.4zM9,12.6H9.6V13.2H9zM9.6,12.6H10.2V13.2H9.6zM10.2,12.6H10.8V13.2H10.2zM12,12.6H12.6V13.2H12zM14.4,12.6H15V13.2H14.4zM15,12.6H15.6V13.2H15zM16.2,12.6H16.8V13.2H16.2zM16.8,12.6H17.4V13.2H16.8zM2.4,13.2H3V13.8H2.4zM3,13.2H3.6V13.8H3zM3.6,13.2H4.2V13.8H3.6zM4.2,13.2H4.8V13.8H4.2zM4.8,13.2H5.4V13.8H4.8zM5.4,13.2H6V13.8H5.4zM6,13.2H6.6V13.8H6zM9,13.2H9.6V13.8H9zM9.6,13.2H10.2V13.8H9.6zM10.8,13.2H11.4V13.8H10.8zM11.4,13.2H12V13.8H11.4zM12,13.2H12.6V13.8H12zM13.2,13.2H13.8V13.8H13.2zM14.4,13.2H15V13.8H14.4zM15,13.2H15.6V13.8H15zM16.2,13.2H16.8V13.8H16.2zM16.8,13.2H17.4V13.8H16.8zM2.4,13.8H3V14.4H2.4zM6,13.8H6.6V14.4H6zM9.6,13.8H10.2V14.4H9.6zM10.2,13.8H10.8V14.4H10.2zM10.8,13.8H11.4V14.4H10.8zM12,13.8H12.6V14.4H12zM14.4,13.8H15V14.4H14.4zM15,13.8H15.6V14.4H15zM16.2,13.8H16.8V14.4H16.2zM2.4,14.4H3V15H2.4zM3.6,14.4H4.2V15H3.6zM4.2,14.4H4.8V15H4.2zM4.8,14.4H5.4V15H4.8zM6,14.4H6.6V15H6zM7.2,14.4H7.8V15H7.2zM8.4,14.4H9V15H8.4zM9,14.4H9.6V15H9zM10.8,14.4H11.4V15H10.8zM12,14.4H12.6V15H12zM12.6,14.4H13.2V15H12.6zM13.2,14.4H13.8V15H13.2zM13.8,14.4H14.4V15H13.8zM14.4,14.4H15V15H14.4zM15,14.4H15.6V15H15zM16.2,14.4H16.8V15H16.2zM16.8,14.4H17.4V15H16.8zM2.4,15H3V15.6H2.4zM3.6,15H4.2V15.6H3.6zM4.2,15H4.8V15.6H4.2zM4.8,15H5.4V15.6H4.8zM6,15H6.6V15.6H6zM7.8,15H8.4V15.6H7.8zM9,15H9.6V15.6H9zM10.8,15H11.4V15.6H10.8zM11.4,15H12V15.6H11.4zM13.8,15H14.4V15.6H13.8zM14.4,15H15V15.6H14.4zM15,15H15.6V15.6H15zM15.6,15H16.2V15.6H15.6zM2.4,15.6H3V16.2H2.4zM3.6,15.6H4.2V16.2H3.6zM4.2,15.6H4.8V16.2H4.2zM4.8,15.6H5.4V16.2H4.8zM6,15.6H6.6V16.2H6zM7.2,15.6H7.8V16.2H7.2zM7.8,15.6H8.4V16.2H7.8zM10.2,15.6H10.8V16.2H10.2zM11.4,15.6H12V16.2H11.4zM14.4,15.6H15V16.2H14.4zM16.8,15.6H17.4V16.2H16.8zM2.4,16.2H3V16.8H2.4zM6,16.2H6.6V16.8H6zM7.8,16.2H8.4V16.8H7.8zM8.4,16.2H9V16.8H8.4zM9,16.2H9.6V16.8H9zM11.4,16.2H12V16.8H11.4zM12,16.2H12.6V16.8H12zM12.6,16.2H13.2V16.8H12.6zM13.2,16.2H13.8V16.8H13.2zM14.4,16.2H15V16.8H14.4zM15,16.2H15.6V16.8H15zM16.2,16.2H16.8V16.8H16.2zM2.4,16.8H3V17.4H2.4zM3,16.8H3.6V17.4H3zM3.6,16.8H4.2V17.4H3.6zM4.2,16.8H4.8V17.4H4.2zM4.8,16.8H5.4V17.4H4.8zM5.4,16.8H6V17.4H5.4zM6,16.8H6.6V17.4H6zM7.2,16.8H7.8V17.4H7.2zM8.4,16.8H9V17.4H8.4zM9.6,16.8H10.2V17.4H9.6zM11.4,16.8H12V17.4H11.4zM12,16.8H12.6V17.4H12zM12.6,16.8H13.2V17.4H12.6zM13.8,16.8H14.4V17.4H13.8zM16.2,16.8H16.8V17.4H16.2zM16.8,16.8H17.4V17.4H16.8z" id="qr-path" fill="#000000" fill-opacity="1" fill-rule="nonzero" stroke="none" /></svg>